<svg width="308" height="313" viewBox="0 0 308 313" fill="none" xmlns="http://www.w3.org/2000/svg">
<path d="M73.8176 312.221C66.5715 312.221 58.6544 310.476 50.0664 306.987C41.7467 303.23 33.8297 296.923 26.3152 288.067C18.8006 279.21 12.628 266.999 7.79725 251.433C2.96649 235.868 0.551114 216.142 0.551114 192.257C0.551114 174.544 2.8323 156.563 7.39469 138.313C12.2254 119.795 19.74 102.351 29.9382 85.98C40.1365 69.6091 53.2869 55.3852 69.3894 43.3083C85.7603 31.2314 105.352 22.7776 128.164 17.9468C137.557 15.7998 148.292 13.787 160.369 11.9084C172.714 9.76138 185.193 7.88275 197.807 6.2725C210.421 4.39387 222.363 2.91781 233.635 1.84432C245.175 0.770815 254.837 0.234063 262.62 0.234063C275.502 0.234063 285.163 1.9785 291.604 5.46739C298.045 8.95626 302.339 12.9819 304.486 17.5443C306.633 21.8383 307.707 25.7297 307.707 29.2186C307.707 33.5126 306.365 37.8066 303.681 42.1006C301.266 46.3946 294.556 49.2126 283.553 50.5545C281.138 50.8228 276.039 51.4938 268.256 52.5673C260.473 53.3724 251.08 54.5801 240.076 56.1903C229.341 57.8006 217.935 59.545 205.858 61.4237C194.05 63.0339 182.51 64.7783 171.238 66.657C160.235 68.2672 150.707 69.7433 142.656 71.0852C124.943 74.3057 110.585 79.6732 99.5817 87.1877C88.5783 94.4338 79.9902 103.022 73.8176 112.952C67.9134 122.882 63.6193 133.348 60.9356 144.352C71.6706 141.936 82.8082 139.521 94.3483 137.106C105.888 134.69 116.758 132.543 126.956 130.665C137.423 128.786 146.413 127.31 153.928 126.236C161.442 125.163 166.541 124.626 169.225 124.626C179.692 124.626 185.999 125.968 188.146 128.652C190.561 131.335 191.769 135.495 191.769 141.131C191.769 146.23 187.206 152.135 178.081 158.844C168.957 165.285 154.464 171.86 134.605 178.57C114.745 185.279 88.7124 191.183 56.5074 196.282C56.5074 196.551 56.5074 196.685 56.5074 196.685C55.9706 202.052 55.5681 208.225 55.2997 215.203C55.0313 221.912 54.8971 228.622 54.8971 235.331C54.8971 242.04 55.2997 247.542 56.1048 251.836C56.91 256.13 58.386 258.277 60.533 258.277C66.4373 258.277 74.6227 257.069 85.0894 254.654C95.556 252.239 106.559 249.286 118.1 245.798C129.64 242.309 140.375 238.954 150.305 235.734C160.234 232.245 167.481 229.561 172.043 227.682C178.752 224.998 185.462 222.315 192.171 219.631C199.149 216.947 204.651 215.605 208.676 215.605C212.702 215.605 216.191 217.216 219.143 220.436C222.095 223.388 223.034 227.951 221.961 234.123C221.692 236.807 218.875 241.235 213.507 247.408C208.408 253.312 201.296 260.021 192.171 267.536C183.315 274.782 172.714 281.894 160.369 288.872C148.292 295.581 134.873 301.217 120.112 305.779C105.62 310.074 90.1885 312.221 73.8176 312.221Z" fill="white"/>
</svg>
