<svg width="38" height="38" viewBox="0 0 38 38" fill="none" xmlns="http://www.w3.org/2000/svg">
<g clip-path="url(#clip0_208_34)">
<mask id="mask0_208_34" style="mask-type:alpha" maskUnits="userSpaceOnUse" x="0" y="0" width="38" height="38">
<rect width="37.1406" height="37.1406" rx="6.09338" fill="#F97316"/>
</mask>
<g mask="url(#mask0_208_34)">
<rect width="37.1406" height="37.1406" fill="#F97316"/>
<path d="M8.15703 24.1935C7.87979 24.1935 7.57687 24.1268 7.24828 23.9933C6.92996 23.8495 6.62704 23.6082 6.33953 23.2694C6.05202 22.9305 5.81584 22.4633 5.63101 21.8677C5.44618 21.2722 5.35377 20.5175 5.35377 19.6036C5.35377 18.9259 5.44105 18.2379 5.61561 17.5396C5.80044 16.8311 6.08795 16.1637 6.47815 15.5373C6.86835 14.9109 7.3715 14.3667 7.9876 13.9046C8.61398 13.4425 9.36357 13.1191 10.2364 12.9343C10.5958 12.8521 11.0065 12.7751 11.4686 12.7032C11.9409 12.6211 12.4184 12.5492 12.901 12.4876C13.3836 12.4157 13.8406 12.3592 14.2719 12.3182C14.7134 12.2771 15.0831 12.2565 15.3808 12.2565C15.8737 12.2565 16.2434 12.3233 16.4898 12.4568C16.7363 12.5903 16.9006 12.7443 16.9827 12.9189C17.0649 13.0831 17.1059 13.232 17.1059 13.3655C17.1059 13.5298 17.0546 13.6941 16.9519 13.8584C16.8595 14.0227 16.6028 14.1305 16.1818 14.1819C16.0894 14.1921 15.8943 14.2178 15.5965 14.2589C15.2987 14.2897 14.9393 14.3359 14.5183 14.3975C14.1076 14.4591 13.6712 14.5259 13.2091 14.5977C12.7573 14.6593 12.3157 14.7261 11.8845 14.798C11.4635 14.8596 11.0989 14.9161 10.7909 14.9674C10.1132 15.0906 9.5638 15.296 9.1428 15.5835C8.72179 15.8607 8.39321 16.1893 8.15703 16.5693C7.93113 16.9492 7.76684 17.3497 7.66415 17.7707C8.07489 17.6782 8.50102 17.5858 8.94256 17.4934C9.3841 17.401 9.79997 17.3189 10.1902 17.247C10.5906 17.1751 10.9346 17.1186 11.2221 17.0775C11.5097 17.0365 11.7048 17.0159 11.8074 17.0159C12.2079 17.0159 12.4492 17.0673 12.5314 17.17C12.6238 17.2726 12.67 17.4318 12.67 17.6474C12.67 17.8425 12.4954 18.0684 12.1463 18.3252C11.7972 18.5716 11.2427 18.8232 10.4828 19.0799C9.72296 19.3366 8.72693 19.5625 7.49472 19.7576C7.49472 19.7679 7.49472 19.773 7.49472 19.773C7.47419 19.9784 7.45878 20.2145 7.44852 20.4815C7.43825 20.7382 7.43311 20.9949 7.43311 21.2516C7.43311 21.5084 7.44852 21.7189 7.47932 21.8831C7.51013 22.0474 7.5666 22.1296 7.64875 22.1296C7.87465 22.1296 8.18784 22.0834 8.58831 21.991C8.98877 21.8986 9.40978 21.7856 9.85132 21.6521C10.2929 21.5186 10.7036 21.3903 11.0835 21.267C11.4635 21.1336 11.7407 21.0309 11.9153 20.959C12.172 20.8563 12.4287 20.7536 12.6854 20.6509C12.9524 20.5483 13.1629 20.4969 13.3169 20.4969C13.4709 20.4969 13.6044 20.5585 13.7174 20.6817C13.8303 20.7947 13.8663 20.9693 13.8252 21.2054C13.8149 21.3081 13.7071 21.4775 13.5017 21.7137C13.3066 21.9396 13.0345 22.1963 12.6854 22.4838C12.3465 22.7611 11.9409 23.0332 11.4686 23.3002C11.0065 23.5569 10.4931 23.7725 9.92833 23.9471C9.37384 24.1114 8.7834 24.1935 8.15703 24.1935ZM17.1341 24.4708C16.8158 24.4708 16.518 24.3732 16.2407 24.1781C15.9635 23.983 15.8249 23.6647 15.8249 23.2232C15.8249 22.8843 15.9121 22.6122 16.0867 22.4068C16.2613 22.1912 16.4615 22.032 16.6874 21.9294C16.9236 21.8267 17.1238 21.7753 17.2881 21.7753C17.4627 21.7753 17.6578 21.8164 17.8734 21.8986C18.0993 21.9704 18.2944 22.1091 18.4587 22.3144C18.623 22.5095 18.7051 22.7919 18.7051 23.1616C18.7051 23.521 18.5511 23.829 18.2431 24.0857C17.9453 24.3424 17.5756 24.4708 17.1341 24.4708ZM25.584 24.44C24.8036 24.44 24.1104 24.2397 23.5046 23.8393C22.8988 23.4388 22.4213 22.8843 22.0722 22.1758C21.7333 21.457 21.5639 20.6355 21.5639 19.7114C21.5639 19.0234 21.7025 18.356 21.9798 17.7091C22.257 17.0519 22.5651 16.4768 22.9039 15.984C22.8628 15.8299 22.8423 15.64 22.8423 15.4141C22.8423 15.1368 22.9553 14.8185 23.1812 14.4591C23.4071 14.0997 23.7202 13.7506 24.1207 13.4117C24.5314 13.0729 25.0089 12.7905 25.5532 12.5646C26.1076 12.3387 26.7083 12.2257 27.3553 12.2257C28.3616 12.2257 29.2087 12.4311 29.8967 12.8418C30.5847 13.2526 31.1032 13.7917 31.4523 14.4591C31.8117 15.1266 31.9914 15.8505 31.9914 16.6309C31.9914 17.7604 31.8066 18.8026 31.4369 19.7576C31.0673 20.7126 30.5744 21.5392 29.9583 22.2374C29.3422 22.9357 28.6542 23.4799 27.8943 23.8701C27.1345 24.25 26.3644 24.44 25.584 24.44ZM25.7688 14.7826C25.7791 14.8134 25.7842 14.8442 25.7842 14.875C25.7842 14.9777 25.7637 15.0906 25.7226 15.2138C25.6815 15.3268 25.5994 15.4397 25.4761 15.5527C25.2708 15.7581 25.0654 16.0456 24.86 16.4152C24.6547 16.7746 24.4647 17.1751 24.2901 17.6166C24.1258 18.0582 23.9924 18.51 23.8897 18.9721C23.787 19.4341 23.7356 19.8757 23.7356 20.2967C23.7356 20.8717 23.8691 21.3492 24.1361 21.7291C24.4134 22.1091 24.8446 22.299 25.4299 22.299C25.9228 22.299 26.39 22.1861 26.8316 21.9602C27.2731 21.724 27.6787 21.4108 28.0484 21.0206C28.418 20.6201 28.7364 20.1786 29.0033 19.696C29.2703 19.2031 29.4757 18.7051 29.6194 18.2019C29.7735 17.6885 29.8505 17.2008 29.8505 16.7387C29.8505 16.3074 29.7581 15.907 29.5732 15.5373C29.3987 15.1676 29.142 14.8698 28.8031 14.6439C28.4642 14.4078 28.0432 14.2897 27.5401 14.2897C27.1704 14.2897 26.8367 14.3359 26.5389 14.4283C26.2514 14.5207 25.9947 14.6388 25.7688 14.7826Z" fill="white"/>
</g>
</g>
<defs>
<clipPath id="clip0_208_34">
<rect width="37.1406" height="37.1406" fill="white"/>
</clipPath>
</defs>
</svg>
