<svg width="1050" height="1050" viewBox="0 0 1050 1050" fill="none" xmlns="http://www.w3.org/2000/svg">
<g clip-path="url(#clip0_258_34)">
<mask id="mask0_258_34" style="mask-type:alpha" maskUnits="userSpaceOnUse" x="0" y="0" width="1050" height="1051">
<rect x="0.232544" y="0.616211" width="1049.39" height="1049.39" rx="172.166" fill="#C4C4C4"/>
</mask>
<g mask="url(#mask0_258_34)">
<rect x="0.232544" y="0.616211" width="1049.39" height="1049.39" fill="#2DAB5B"/>
<path d="M252.244 673.788C244.998 673.788 237.081 672.044 228.493 668.555C220.173 664.798 212.256 658.491 204.742 649.634C197.227 640.778 191.054 628.567 186.224 613.001C181.393 597.435 178.978 577.71 178.978 553.824C178.978 536.112 181.259 518.13 185.821 499.881C190.652 481.363 198.166 463.919 208.365 447.548C218.563 431.177 231.713 416.953 247.816 404.876C264.187 392.799 283.778 384.345 306.59 379.514C315.983 377.367 326.718 375.355 338.795 373.476C351.14 371.329 363.62 369.45 376.234 367.84C388.847 365.961 400.79 364.485 412.062 363.412C423.602 362.338 433.263 361.802 441.046 361.802C453.928 361.802 463.59 363.546 470.031 367.035C476.472 370.524 480.766 374.55 482.913 379.112C485.06 383.406 486.133 387.297 486.133 390.786C486.133 395.08 484.791 399.374 482.108 403.668C479.692 407.962 472.983 410.78 461.979 412.122C459.564 412.39 454.465 413.061 446.682 414.135C438.899 414.94 429.506 416.148 418.503 417.758C407.768 419.368 396.362 421.113 384.285 422.991C372.476 424.602 360.936 426.346 349.664 428.225C338.661 429.835 329.134 431.311 321.082 432.653C303.37 435.873 289.011 441.241 278.008 448.755C267.005 456.001 258.417 464.589 252.244 474.519C246.34 484.449 242.046 494.916 239.362 505.919C250.097 503.504 261.235 501.089 272.775 498.673C284.315 496.258 295.184 494.111 305.382 492.232C315.849 490.354 324.84 488.877 332.354 487.804C339.869 486.73 344.968 486.194 347.652 486.194C358.118 486.194 364.425 487.536 366.572 490.219C368.987 492.903 370.195 497.063 370.195 502.699C370.195 507.798 365.633 513.702 356.508 520.412C347.383 526.853 332.891 533.428 313.031 540.137C293.171 546.847 267.139 552.751 234.934 557.85C234.934 558.118 234.934 558.253 234.934 558.253C234.397 563.62 233.995 569.793 233.726 576.77C233.458 583.48 233.324 590.189 233.324 596.899C233.324 603.608 233.726 609.11 234.531 613.404C235.336 617.698 236.812 619.845 238.959 619.845C244.864 619.845 253.049 618.637 263.516 616.222C273.982 613.806 284.986 610.854 296.526 607.365C308.066 603.876 318.801 600.522 328.731 597.301C338.661 593.812 345.907 591.128 350.469 589.25C357.179 586.566 363.888 583.882 370.598 581.199C377.575 578.515 383.077 577.173 387.103 577.173C391.128 577.173 394.617 578.783 397.569 582.004C400.521 584.956 401.461 589.518 400.387 595.691C400.119 598.375 397.301 602.803 391.933 608.975C386.834 614.88 379.722 621.589 370.598 629.104C361.741 636.35 351.14 643.462 338.795 650.439C326.718 657.149 313.299 662.785 298.539 667.347C284.047 671.641 268.615 673.788 252.244 673.788ZM486.869 681.034C478.55 681.034 470.767 678.485 463.521 673.386C456.274 668.286 452.651 659.967 452.651 648.427C452.651 639.57 454.932 632.458 459.495 627.091C464.057 621.455 469.291 617.295 475.195 614.611C481.367 611.928 486.601 610.586 490.895 610.586C495.457 610.586 500.556 611.659 506.192 613.806C512.096 615.685 517.196 619.308 521.49 624.675C525.784 629.775 527.931 637.155 527.931 646.816C527.931 656.21 523.905 664.261 515.854 670.97C508.071 677.68 498.409 681.034 486.869 681.034ZM707.716 680.229C687.319 680.229 669.204 674.996 653.37 664.529C637.536 654.063 625.056 639.57 615.932 621.052C607.075 602.266 602.647 580.796 602.647 556.642C602.647 538.661 606.27 521.217 613.516 504.309C620.762 487.133 628.814 472.104 637.67 459.222C636.596 455.196 636.06 450.231 636.06 444.327C636.06 437.081 639.012 428.761 644.916 419.368C650.82 409.975 659.006 400.85 669.472 391.994C680.207 383.138 692.687 375.757 706.911 369.853C721.403 363.949 737.103 360.997 754.011 360.997C780.311 360.997 802.452 366.364 820.434 377.099C838.415 387.834 851.968 401.924 861.092 419.368C870.486 436.813 875.182 455.733 875.182 476.13C875.182 505.651 870.351 532.891 860.69 557.85C851.028 582.809 838.146 604.413 822.044 622.663C805.941 640.912 787.96 655.136 768.1 665.334C748.241 675.264 728.112 680.229 707.716 680.229ZM712.547 427.822C712.815 428.627 712.949 429.432 712.949 430.237C712.949 432.921 712.412 435.873 711.339 439.094C710.265 442.046 708.118 444.998 704.898 447.95C699.53 453.318 694.163 460.832 688.795 470.494C683.428 479.887 678.463 490.354 673.901 501.894C669.607 513.434 666.118 525.242 663.434 537.319C660.75 549.396 659.408 560.936 659.408 571.94C659.408 586.969 662.897 599.448 669.875 609.378C677.121 619.308 688.393 624.273 703.69 624.273C716.572 624.273 728.783 621.321 740.324 615.416C751.864 609.244 762.465 601.058 772.126 590.86C781.788 580.393 790.107 568.853 797.085 556.24C804.063 543.358 809.43 530.341 813.187 517.191C817.213 503.772 819.226 491.024 819.226 478.948C819.226 467.676 816.811 457.209 811.98 447.548C807.417 437.886 800.708 430.103 791.852 424.199C782.995 418.026 771.992 414.94 758.841 414.94C749.18 414.94 740.458 416.148 732.675 418.563C725.16 420.978 718.451 424.065 712.547 427.822Z" fill="white"/>
</g>
</g>
<defs>
<clipPath id="clip0_258_34">
<rect width="1049.39" height="1049.39" fill="white" transform="translate(0.232544 0.616211)"/>
</clipPath>
</defs>
</svg>
